<svg version="1.0" id="Capa_1" xmlns="http://www.w3.org/2000/svg" xmlns:xlink="http://www.w3.org/1999/xlink" x="0px" y="0px" width="1200px" height="1200px" viewBox="0 0 1200 1200" enable-background="new 0 0 1200 1200" xml:space="preserve">
<g>
	<path fill="#3A8871" d="M1176.458,599.967c0,318.386-258.08,576.483-576.466,576.483c-318.353,0-576.45-258.097-576.45-576.483&#10;&#9;&#9;c0-318.328,258.097-576.417,576.45-576.417C918.378,23.55,1176.458,281.639,1176.458,599.967z" style="fill: rgb(138, 138, 138);"/>
	<path fill="#2F5D4D" d="M1173.613,657.192l-110.537-122.959c-39.501-9.114-97.099,28.583-145.762,28.843&#10;&#9;&#9;c-30.031,0.146-151.299-18.34-180.59-18.259L626.738,444.693c-10.097-0.732-30.136-1.114-40.38-2.374&#10;&#9;&#9;c-48.558-2.755-30.404-0.146-79.084-2.081c-55.062-2.194-66.589,44.095-121.748,46.826c-33.51,1.667-32.526,90.165-66.077,91.571&#10;&#9;&#9;c-12.023,31.396-82.726,12.487-82.726,12.487l-1.561,27.055c-4.39,15.641-56.37,49.339-62.435,63.996&#10;&#9;&#9;c-2.366,1.334-32.372,25.885-32.372,25.885L287.841,879.51l252.821,293.916c19.503,1.991,39.298,3.024,59.33,3.024&#10;&#9;&#9;C899.062,1176.45,1144.884,948.709,1173.613,657.192z" style="fill: rgb(0, 0, 0);"/>
	<g>
		<path fill="#EFE6CC" d="M827.165,678.727c0,29.527,23.917,53.427,53.394,53.427c29.543,0,53.443-23.9,53.443-53.427&#10;&#9;&#9;&#9;c0-29.51-23.901-53.428-53.443-53.428C851.081,625.299,827.165,649.217,827.165,678.727z" style="fill: rgb(245, 245, 245);"/>
		<path fill="#EFE6CC" d="M1027.265,613.17c-0.114,0.65-0.163,1.203-0.196,1.772c3.724,0.162,7.756,0.585,10.503,1.593&#10;&#9;&#9;&#9;c5.138,1.902,9.414,6.699,11.203,14.958c3.365,1.399,7.17,3.952,7.462,8.585c0.342,5.235-4.618,7.723-8.455,8.894&#10;&#9;&#9;&#9;c-3.154,8.194-9.268,13.738-9.268,13.738l-0.032,0.277c8.195,4.211,15.381,12.129,15.381,18.258&#10;&#9;&#9;&#9;c0,8.748-9.349,17.528-15.82,17.528c-6.52,0-37.331,0.569-41.835,0c-4.553-0.569-12.438-2.83-15.56-15.544&#10;&#9;&#9;&#9;c-1.399-5.772,0.211-11.008,3.023-15.073c-2.682-5.967-5.544-13.056-8.422-21.445c-7.365-21.381-19.088-33.299-41.591-39.673&#10;&#9;&#9;&#9;c21.95,16.26,36.241,42.274,36.241,71.687c0,49.33-39.997,89.327-89.344,89.327c-49.314,0-89.311-39.997-89.311-89.327&#10;&#9;&#9;&#9;c0-27.575,12.536-52.208,32.161-68.581c-11.934,6.601-17.463,15.82-23.039,24.892c-10.942,17.707-47.493,82.905-47.493,82.905&#10;&#9;&#9;&#9;l-337.262,3.951c-3.853-10.812-8.325-21.706-15.69-29.916c-6.39,43.053-43.396,76.076-88.222,76.076&#10;&#9;&#9;&#9;c-47.476,0-86.189-37.054-89.035-83.815c-7.951,5.382-8.211,12.861-8.569,17.04c-0.569,6.471-0.845,14.405-0.845,14.405&#10;&#9;&#9;&#9;l-69.638-1.284c0,0-15.657-14.178,1.008-34.111h13.771c0.163-4.683,0.049-11.788-1.349-16.226&#10;&#9;&#9;&#9;c-9.056-18.65-10.471-35.055-5.95-59.362c-5.658-19.771-1.707-30.502-1.707-30.502s38.924-12.568,70.906-13.999&#10;&#9;&#9;&#9;c51.411-14.406,63.085-22.893,63.085-22.893s51.46-52.566,60.809-62.191c9.333-9.609,9.333-23.722,82.238-36.453&#10;&#9;&#9;&#9;c72.938-12.715,160.721-3.674,169.485-3.106c4.698,0.293,11.088,1.122,16.958,2.569l0,0c0.406,0.098,0.78,0.196,1.17,0.325&#10;&#9;&#9;&#9;c0.732,0.195,1.431,0.374,2.13,0.569c0.618,0.211,1.186,0.422,1.805,0.633c0.569,0.211,1.154,0.407,1.691,0.634&#10;&#9;&#9;&#9;c0.732,0.276,1.349,0.602,2,0.911c0.374,0.179,0.781,0.357,1.106,0.536c0.96,0.553,1.805,1.122,2.521,1.724&#10;&#9;&#9;&#9;c0.309,0.26,0.829,0.698,1.447,1.235c0,0,0,0-0.032,0c0.211,0.147,0.374,0.309,0.601,0.471c-3.008,2.114-7.121,5.919-8.763,10.569&#10;&#9;&#9;&#9;c-4.618,15.788-12.39,52.517-13.707,59.248c-1.609,8.194-1.609,12.731,8.325,12.731c9.853,0,207.352-13.87,207.352-13.87&#10;&#9;&#9;&#9;s1.707,4.358,0.96,10.748c119.456-3.382,241.593,6.422,241.593,6.422s0.358,8.276-3.008,19.203&#10;&#9;&#9;&#9;c-3.398,10.942-11.723,24.877-14.698,42.989C1042.337,611.268,1029.525,600.342,1027.265,613.17z M769.575,572.734&#10;&#9;&#9;&#9;c0.39,0.341,0.911,0.471,1.382,0.471c0.699,0,1.349-0.293,1.788-0.862l8.292-10.536c0.781-1.008,0.602-2.423-0.39-3.188&#10;&#9;&#9;&#9;c-0.976-0.764-2.39-0.601-3.154,0.375l-8.309,10.552C768.42,570.539,768.566,571.953,769.575,572.734z M756.372,572.734&#10;&#9;&#9;&#9;c0.406,0.341,0.894,0.471,1.382,0.471c0.666,0,1.349-0.293,1.788-0.862l8.292-10.536c0.781-1.008,0.602-2.423-0.39-3.188&#10;&#9;&#9;&#9;c-0.976-0.764-2.39-0.601-3.17,0.375l-8.292,10.552C755.201,570.539,755.38,571.953,756.372,572.734z M743.17,572.734&#10;&#9;&#9;&#9;c0.423,0.341,0.894,0.471,1.399,0.471c0.667,0,1.333-0.293,1.788-0.862l8.26-10.536c0.797-1.008,0.618-2.423-0.374-3.188&#10;&#9;&#9;&#9;c-0.976-0.764-2.39-0.601-3.154,0.375l-8.292,10.552C742.032,570.539,742.178,571.953,743.17,572.734z M730,572.734&#10;&#9;&#9;&#9;c0.39,0.341,0.878,0.471,1.365,0.471c0.699,0,1.334-0.293,1.789-0.862l8.292-10.536c0.764-1.008,0.601-2.423-0.374-3.188&#10;&#9;&#9;&#9;c-1.008-0.764-2.407-0.601-3.188,0.375l-8.276,10.552C728.829,570.539,728.975,571.953,730,572.734z M716.781,572.734&#10;&#9;&#9;&#9;c0.423,0.341,0.894,0.471,1.399,0.471c0.65,0,1.349-0.293,1.788-0.862l8.276-10.536c0.797-1.008,0.619-2.423-0.374-3.188&#10;&#9;&#9;&#9;c-0.991-0.764-2.406-0.601-3.187,0.375l-8.276,10.552C715.627,570.539,715.79,571.953,716.781,572.734z M703.563,572.734&#10;&#9;&#9;&#9;c0.439,0.341,0.927,0.471,1.414,0.471c0.667,0,1.349-0.293,1.772-0.862l8.309-10.536c0.748-1.008,0.585-2.423-0.375-3.188&#10;&#9;&#9;&#9;c-0.975-0.764-2.422-0.601-3.17,0.375l-8.292,10.552C702.44,570.539,702.603,571.953,703.563,572.734z M430.67,542.313h0.845&#10;&#9;&#9;&#9;l123.423-5.041l9.885-41.965c0.602-2.439,3.024-3.968,5.447-3.382c2.439,0.569,3.934,3.009,3.381,5.431l-9.349,39.59l18.877-0.667&#10;&#9;&#9;&#9;l19.982-81.783c0,0-51.802,1.692-85.15,3.382c-33.364,1.691-44.37,10.747-57.947,33.364&#10;&#9;&#9;&#9;C446.506,513.843,430.67,542.313,430.67,542.313z M388.363,682.97c-4.032-2.081-8.634-3.61-13.999-4.325&#10;&#9;&#9;&#9;c-2.586-0.358-5.788-0.634-9.284-0.911c0,0.342,0.033,0.667,0.033,0.992c0,29.527-23.901,53.427-53.412,53.427&#10;&#9;&#9;&#9;c-29.526,0-53.443-23.9-53.443-53.427c0-0.455,0.082-0.878,0.097-1.334c-5.089,0.196-9.642,0.455-13.446,0.683&#10;&#9;&#9;&#9;c-3.837,0.26-7.154,0.715-10.065,1.317c0.358,42.159,34.616,76.222,76.857,76.222C352.74,755.616,386.168,723.472,388.363,682.97z&#10;&#9;&#9;&#9; M800.743,550.589l-10.909,25.933l-28.551,0.293c-9.528,0.114-19.104,0.195-28.648,0.439l-57.265,1.301l3.333,1.87l-57.249,2.276&#10;&#9;&#9;&#9;l-37.038,2.927l-28.616,1.512l-28.633,1.968l-28.632,2c-9.528,0.65-19.072,1.285-28.6,2.195l-57.199,5.381l57.248-3.235&#10;&#9;&#9;&#9;l14.308-0.862l14.308-0.716l28.616-1.382l57.249-2.796l37.054-2.553l168.429-9.869h0.081l0.049-0.147L800.743,550.589z&#10;&#9;&#9;&#9; M880.559,601.854c-42.436,0-76.857,34.421-76.857,76.873c0,42.468,34.421,76.889,76.857,76.889&#10;&#9;&#9;&#9;c42.502,0,76.906-34.421,76.906-76.889C957.465,636.274,923.06,601.854,880.559,601.854z" style="fill: rgb(245, 245, 245);"/>
	</g>
</g>
</svg>